# xmcd CD database file
#
# Track frame offsets:
#	150
#	13090
#	23376
#	33491
#	37592
#	50901
#	61296
#	74877
#	80067
#	95190
#	97314
#	111637
#	115171
#	128140
#	129872
#	147552
#	154514
#	170412
#	172436
#	188089
#	191450
#	204605
#	214463
#	231942
#	235418
#	244950
#
# Disc length: 3341 seconds
#
# Revision: 0
# Processed by: cddbd v1.5.2PL0 Copyright (c) Steve Scherf et al.
# Submitted via: CDex 1.51
#
DISCID=900d0b1a
DTITLE=Clover and Rachel Carroll - Texas Routes
DYEAR=2001
DGENRE=Country
TTITLE0=There Ain't a Cow in Texas
TTITLE1=Cecil Roberts*
TTITLE2=Oil Rag
TTITLE3=Lee Carroll*
TTITLE4=Bar-B-Que
TTITLE5=Rab White*
TTITLE6=Ballad of Horse Thief Valley
TTITLE7=Odell Mullinax*
TTITLE8=The Road Song
TTITLE9=Jewel Hall*
TTITLE10=Under the Double Eagle
TTITLE11=Annie Reynolds*
TTITLE12=John Henry
TTITLE13=Joe Hill*
TTITLE14=Coyote Lullaby
TTITLE15=Reed Reynolds*
TTITLE16=To Share The Moon
TTITLE17=Eula Grisham*
TTITLE18=Before You
TTITLE19=Danny Santos*
TTITLE20=Rocky Mountain Side
TTITLE21=Nell Grisham*
TTITLE22=Cowboy's Sweetheart
TTITLE23=Armadillo Jim*
TTITLE24=Yodel Blues
TTITLE25=Velma White, Pip Gillette, Nell Grisham*
EXTD=YEAR: 2001
EXTT0=
EXTT1=
EXTT2=
EXTT3=
EXTT4=
EXTT5=
EXTT6=
EXTT7=
EXTT8=
EXTT9=
EXTT10=
EXTT11=
EXTT12=
EXTT13=
EXTT14=
EXTT15=
EXTT16=
EXTT17=
EXTT18=
EXTT19=
EXTT20=
EXTT21=
EXTT22=
EXTT23=
EXTT24=
EXTT25=
PLAYORDER=
